<svg version="1.1" xmlns="http://www.w3.org/2000/svg" xmlns:xlink="http://www.w3.org/1999/xlink" viewBox="0 0 102 28"
    width="102px" height="28px" enable-background="new 0 0 102 28" xml:space="preserve">
    <path fill="#EE3124" d="M0,13.133c0-6.128,2.438-8.438,6.417-8.438c1.829,0,3.176,0.481,4.556,1.829L9.369,8.449
    	c-0.962-0.962-1.7-1.412-3.048-1.412c-2.438,0-3.369,1.059-3.369,6.096c0,4.941,1.027,6.129,3.594,6.129
    	c1.315,0,2.053-0.643,2.952-1.477l1.701,1.829c-1.188,1.283-2.631,1.989-4.813,1.989C2.278,21.604,0,18.908,0,13.133z"/>
    <path fill="#EE3124" d="M13.508,16.598c0-3.657,2.15-5.357,7.412-5.357h1.315V9.989c0-1.797-0.225-2.888-2.31-2.888
    	c-1.668,0-3.272,0.706-4.684,1.476l-1.059-2.118c1.636-0.962,3.465-1.765,6.032-1.765c3.144,0,4.78,1.412,4.78,4.844v11.647h-2.149
    	l-0.449-1.604c-0.931,1.027-2.278,2.021-4.043,2.021C15.272,21.604,13.508,19.903,13.508,16.598z M22.235,17.497v-4.268h-0.962
    	c-4.043,0-4.812,1.026-4.812,3.368c0,2.118,0.674,2.824,2.246,2.824C20.278,19.422,21.465,18.363,22.235,17.497z"/>
    <path fill="#EE3124" d="M29.262,5.112h2.149l0.449,1.829c1.219-1.348,2.759-2.246,4.46-2.246c3.08,0,5.486,1.733,5.486,8.342
    	c0,6.031-1.765,8.566-5.519,8.566c-1.765,0-3.241-0.803-4.267-1.797v7.311l-2.759,0.519V5.112z M38.855,13.229
    	c0-5.166-0.834-6.16-3.016-6.16c-1.572,0-2.663,0.802-3.818,1.893v8.695c0.93,0.898,2.214,1.572,3.561,1.572
    	C37.861,19.229,38.855,18.396,38.855,13.229z"/>
    <path fill="#EE3124" d="M44.311,19.871l1.155-2.054c1.348,0.931,2.728,1.476,4.299,1.476c2.182,0,2.856-0.866,2.856-2.374
    	c0-1.797-0.834-2.149-3.401-2.855c-2.246-0.609-4.106-1.797-4.106-4.973c0-2.343,1.508-4.396,5.037-4.396
    	c1.925,0,3.272,0.385,4.46,1.059l-0.963,2.182c-1.348-0.674-2.182-0.898-3.401-0.898c-1.732,0-2.535,0.609-2.535,1.989
    	c0,1.508,0.674,1.893,2.888,2.502c2.47,0.675,4.716,1.637,4.716,5.263c0,3.337-1.893,4.812-5.679,4.812
    	C47.487,21.604,45.434,20.77,44.311,19.871z"/>
    <path fill="#EE3124" d="M57.658,5.112h1.829V0.973l2.759-0.609v4.748h3.305v2.246h-3.305v10.556c0,1.026,0.417,1.476,1.315,1.476
    	c0.738,0,1.251-0.257,1.765-0.449l0.545,2.054c-0.738,0.353-1.54,0.609-2.535,0.609c-2.182,0-3.85-0.866-3.85-3.433V7.358h-1.829
    	V5.112z"/>
    <path fill="#EE3124" d="M69.241,5.112h2.15L71.84,7.39c1.187-1.476,2.663-2.567,4.523-2.567c0.193,0,0.45,0.032,0.578,0.096
    	L76.62,7.871c-0.289-0.096-0.642-0.128-0.962-0.128c-1.476,0-2.471,0.546-3.658,1.636v11.808h-2.759V5.112z"/>
    <path fill="#EE3124" d="M78.962,16.598c0-3.657,2.15-5.357,7.412-5.357h1.316V9.989c0-1.797-0.225-2.888-2.311-2.888
    	c-1.668,0-3.272,0.706-4.684,1.476l-1.059-2.118c1.636-0.962,3.465-1.765,6.032-1.765c3.144,0,4.78,1.412,4.78,4.844v11.647h-2.149
    	l-0.449-1.604c-0.93,1.027-2.278,2.021-4.042,2.021C80.728,21.604,78.962,19.903,78.962,16.598z M87.69,17.497v-4.268h-0.963
    	c-4.042,0-4.813,1.026-4.813,3.368c0,2.118,0.674,2.824,2.246,2.824C85.732,19.422,86.92,18.363,87.69,17.497z"/>
    <path fill="#EE3124" d="M93.786,5.112h1.829V0.973l2.759-0.609v4.748h3.305v2.246h-3.305v10.556c0,1.026,0.417,1.476,1.315,1.476
    	c0.738,0,1.251-0.257,1.765-0.449L102,20.994c-0.738,0.353-1.54,0.609-2.535,0.609c-2.182,0-3.85-0.866-3.85-3.433V7.358h-1.829
    	V5.112z"/>
</svg>