<?xml version="1.0" encoding="utf-8"?>
<!-- Generator: Adobe Illustrator 16.0.4, SVG Export Plug-In . SVG Version: 6.00 Build 0)  -->
<!DOCTYPE svg PUBLIC "-//W3C//DTD SVG 1.0//EN" "http://www.w3.org/TR/2001/REC-SVG-20010904/DTD/svg10.dtd">
<svg xmlns:xlink="http://www.w3.org/1999/xlink" version="1.0" id="Layer_1" xmlns="http://www.w3.org/2000/svg" x="0px" y="0px"
	 width="216.5px" height="48.5px" viewBox="0 0 216.5 48.5" enable-background="new 0 0 216.5 48.5" xml:space="preserve">
<g>
	<g>
		<defs>
			<rect id="SVGID_1_" x="9.3" y="5.8" width="154.3" height="35"/>
		</defs>
		<clipPath id="SVGID_2_">
			<use xlink:href="#SVGID_1_"  overflow="visible"/>
		</clipPath>
		<g clip-path="url(#SVGID_2_)">
			<g>
				<defs>
					<rect id="SVGID_3_" x="-0.3" y="-5.8" width="173.1" height="57.7"/>
				</defs>
				<defs>
					<rect id="SVGID_4_" x="-0.3" y="-5.8" width="173.1" height="57.7"/>
				</defs>
				<defs>
					<rect id="SVGID_5_" x="-0.3" y="-5.8" width="173.1" height="57.7"/>
				</defs>
				<defs>
					<rect id="SVGID_6_" x="-0.3" y="-5.8" width="173.1" height="57.7"/>
				</defs>
				<defs>
					<rect id="SVGID_7_" x="-0.3" y="-5.8" width="173.1" height="57.7"/>
				</defs>
				<defs>
					<rect id="SVGID_8_" x="-0.3" y="-5.8" width="173.1" height="57.7"/>
				</defs>
				<defs>
					<rect id="SVGID_9_" x="-0.3" y="-5.8" width="173.1" height="57.7"/>
				</defs>
				<defs>
					<rect id="SVGID_10_" x="-0.3" y="-5.8" width="173.1" height="57.7"/>
				</defs>
				<defs>
					<rect id="SVGID_11_" x="-0.3" y="-5.8" width="173.1" height="57.7"/>
				</defs>
				<defs>
					<rect id="SVGID_12_" x="-0.3" y="-5.8" width="173.1" height="57.7"/>
				</defs>
				<defs>
					<rect id="SVGID_13_" x="-0.3" y="-5.8" width="173.1" height="57.7"/>
				</defs>
				<defs>
					<rect id="SVGID_14_" x="-0.3" y="-5.8" width="173.1" height="57.7"/>
				</defs>
				<clipPath id="SVGID_15_">
					<use xlink:href="#SVGID_3_"  overflow="visible"/>
				</clipPath>
				<clipPath id="SVGID_16_" clip-path="url(#SVGID_15_)">
					<use xlink:href="#SVGID_4_"  overflow="visible"/>
				</clipPath>
				<clipPath id="SVGID_17_" clip-path="url(#SVGID_16_)">
					<use xlink:href="#SVGID_5_"  overflow="visible"/>
				</clipPath>
				<clipPath id="SVGID_18_" clip-path="url(#SVGID_17_)">
					<use xlink:href="#SVGID_6_"  overflow="visible"/>
				</clipPath>
				<clipPath id="SVGID_19_" clip-path="url(#SVGID_18_)">
					<use xlink:href="#SVGID_7_"  overflow="visible"/>
				</clipPath>
				<clipPath id="SVGID_20_" clip-path="url(#SVGID_19_)">
					<use xlink:href="#SVGID_8_"  overflow="visible"/>
				</clipPath>
				<clipPath id="SVGID_21_" clip-path="url(#SVGID_20_)">
					<use xlink:href="#SVGID_9_"  overflow="visible"/>
				</clipPath>
				<clipPath id="SVGID_22_" clip-path="url(#SVGID_21_)">
					<use xlink:href="#SVGID_10_"  overflow="visible"/>
				</clipPath>
				<clipPath id="SVGID_23_" clip-path="url(#SVGID_22_)">
					<use xlink:href="#SVGID_11_"  overflow="visible"/>
				</clipPath>
				<clipPath id="SVGID_24_" clip-path="url(#SVGID_23_)">
					<use xlink:href="#SVGID_12_"  overflow="visible"/>
				</clipPath>
				<clipPath id="SVGID_25_" clip-path="url(#SVGID_24_)">
					<use xlink:href="#SVGID_13_"  overflow="visible"/>
				</clipPath>
				<clipPath id="SVGID_26_" clip-path="url(#SVGID_25_)">
					<use xlink:href="#SVGID_14_"  overflow="visible"/>
				</clipPath>
				<path clip-path="url(#SVGID_26_)" fill="#00749A" d="M98.8,19.6h-6.1v0.6c1.9,0,2.2,0.4,2.2,2.8v4.3c0,2.4-0.3,2.8-2.2,2.8
					c-1.5-0.2-2.4-1-3.8-2.5L87.4,26c2.1-0.4,3.2-1.7,3.2-3.2c0-1.9-1.6-3.3-4.6-3.3h-6v0.6c1.9,0,2.2,0.4,2.2,2.8v4.3
					c0,2.4-0.3,2.8-2.2,2.8v0.6h6.8V30c-1.9,0-2.2-0.4-2.2-2.8V26h0.6l3.8,4.7h9.9c4.9,0,7-2.6,7-5.7
					C105.8,22.1,103.7,19.6,98.8,19.6 M84.6,25.1v-4.5H86c1.5,0,2.2,1.1,2.2,2.3c0,1.2-0.7,2.2-2.2,2.2H84.6z M98.9,29.8h-0.2
					c-1.2,0-1.4-0.3-1.4-1.9v-7.4h1.6c3.5,0,4.2,2.6,4.2,4.6C103.1,27.2,102.4,29.8,98.9,29.8"/>
				<path clip-path="url(#SVGID_26_)" fill="#00749A" d="M61.1,26.3l2.3-6.9c0.7-2,0.4-2.6-1.8-2.6v-0.7H68v0.7
					c-2.1,0-2.6,0.5-3.5,3l-3.9,11.6h-0.4l-3.5-10.6l-3.5,10.6h-0.4L49,19.8c-0.8-2.5-1.4-3-3.3-3v-0.7h7.5v0.7
					c-2,0-2.5,0.5-1.8,2.6l2.3,6.9l3.4-10.2h0.6L61.1,26.3z"/>
				<path clip-path="url(#SVGID_26_)" fill="#00749A" d="M72.7,31.3c-3.7,0-6.8-2.7-6.8-6.1c0-3.3,3.1-6.1,6.8-6.1
					c3.7,0,6.8,2.7,6.8,6.1C79.5,28.5,76.4,31.3,72.7,31.3 M72.7,20.2c-3.1,0-4.2,2.8-4.2,5c0,2.2,1.1,5,4.2,5c3.2,0,4.2-2.8,4.2-5
					C76.9,23,75.8,20.2,72.7,20.2"/>
				<path clip-path="url(#SVGID_26_)" fill="#464342" d="M114.1,30.2v0.7h-7.8v-0.7c2.3,0,2.7-0.6,2.7-4v-5.4c0-3.4-0.4-3.9-2.7-3.9
					v-0.7h7c3.5,0,5.4,1.8,5.4,4.2c0,2.3-1.9,4.2-5.4,4.2h-1.9v1.7C111.5,29.6,111.9,30.2,114.1,30.2 M113.4,17.4h-1.9v5.9h1.9
					c1.9,0,2.8-1.3,2.8-2.9C116.2,18.7,115.3,17.4,113.4,17.4"/>
				<path clip-path="url(#SVGID_26_)" fill="#464342" d="M142.1,27.7l-0.2,0.6c-0.3,1.1-0.7,1.5-3.1,1.5h-0.5
					c-1.8,0-2.1-0.4-2.1-2.8v-1.6c2.6,0,2.8,0.2,2.8,2h0.6v-5.1H139c0,1.8-0.2,2-2.8,2v-3.8h1.9c2.4,0,2.8,0.4,3.1,1.5l0.2,0.6h0.5
					l-0.2-3.2h-10V20c1.9,0,2.2,0.4,2.2,2.8v4.3c0,2.2-0.3,2.8-1.8,2.8c-1.4-0.2-2.4-1-3.7-2.5l-1.6-1.7c2.1-0.4,3.2-1.7,3.2-3.2
					c0-1.9-1.6-3.3-4.6-3.3h-6v0.6c1.9,0,2.2,0.4,2.2,2.8v4.3c0,2.4-0.3,2.8-2.2,2.8v0.6h6.8v-0.6c-1.9,0-2.2-0.4-2.2-2.8v-1.2h0.6
					l3.8,4.7h13.9l0.2-3.2h-0.4V27.7z M124.1,25.1v-4.5h1.4c1.5,0,2.2,1.1,2.2,2.3c0,1.2-0.7,2.2-2.2,2.2H124.1z"/>
				<path clip-path="url(#SVGID_26_)" fill="#464342" d="M149,31.3c-1.4,0-2.5-0.7-3.1-1.2c-0.2,0.2-0.5,0.7-0.5,1.2h-0.6v-4.7h0.7
					c0.3,2.2,1.8,3.6,3.8,3.6c1.1,0,2-0.6,2-1.6c0-0.9-0.8-1.6-2.2-2.2l-1.9-0.9c-1.4-0.6-2.4-1.8-2.4-3.3c0-1.6,1.5-3,3.6-3
					c1.1,0,2.1,0.4,2.6,0.9c0.2-0.1,0.3-0.5,0.4-0.9h0.6v4h-0.7c-0.2-1.6-1.1-2.9-2.9-2.9c-1,0-1.8,0.5-1.8,1.4
					c0,0.9,0.7,1.4,2.3,2.1l1.9,0.9c1.6,0.8,2.3,2,2.3,3.1C153.1,29.8,151.3,31.3,149,31.3"/>
				<path clip-path="url(#SVGID_26_)" fill="#464342" d="M159.5,31.3c-1.4,0-2.5-0.7-3.1-1.2c-0.2,0.2-0.5,0.7-0.5,1.2h-0.6v-4.7
					h0.7c0.3,2.2,1.8,3.6,3.8,3.6c1.1,0,2-0.6,2-1.6c0-0.9-0.8-1.6-2.2-2.2l-1.9-0.9c-1.4-0.6-2.4-1.8-2.4-3.3c0-1.6,1.5-3,3.6-3
					c1.1,0,2.1,0.4,2.6,0.9c0.2-0.1,0.3-0.5,0.4-0.9h0.6v4h-0.7c-0.2-1.6-1.1-2.9-2.9-2.9c-1,0-1.8,0.5-1.8,1.4
					c0,0.9,0.7,1.4,2.3,2.1l1.9,0.9c1.6,0.8,2.3,2,2.3,3.1C163.6,29.8,161.7,31.3,159.5,31.3"/>
				<path clip-path="url(#SVGID_26_)" fill="#464342" d="M11.8,23.3c0,5.9,3.5,11.1,8.5,13.5l-7.2-19.6C12.3,19,11.8,21.1,11.8,23.3
					"/>
				<path clip-path="url(#SVGID_26_)" fill="#464342" d="M37,22.5c0-1.9-0.7-3.1-1.2-4.1c-0.8-1.2-1.5-2.3-1.5-3.5
					c0-1.4,1-2.7,2.5-2.7c0.1,0,0.1,0,0.2,0c-2.7-2.4-6.2-3.9-10.1-3.9C21.6,8.3,17,11,14.3,15c0.4,0,0.7,0,1,0c1.6,0,4-0.2,4-0.2
					c0.8,0,0.9,1.1,0.1,1.2c0,0-0.8,0.1-1.7,0.1l5.5,16.3l3.3-9.9L24,16.2c-0.8,0-1.6-0.1-1.6-0.1c-0.8,0-0.7-1.3,0.1-1.2
					c0,0,2.5,0.2,4,0.2c1.6,0,4-0.2,4-0.2c0.8,0,0.9,1.1,0.1,1.2c0,0-0.8,0.1-1.7,0.1l5.4,16.1l1.5-5C36.5,25.3,37,23.8,37,22.5"/>
				<path clip-path="url(#SVGID_26_)" fill="#464342" d="M27.1,24.6l-4.5,13.1c1.3,0.4,2.8,0.6,4.2,0.6c1.7,0,3.4-0.3,5-0.9
					c0-0.1-0.1-0.1-0.1-0.2L27.1,24.6z"/>
				<path clip-path="url(#SVGID_26_)" fill="#464342" d="M40,16.1c0.1,0.5,0.1,1,0.1,1.5c0,1.5-0.3,3.2-1.1,5.4l-4.6,13.3
					c4.5-2.6,7.5-7.4,7.5-13C41.8,20.7,41.2,18.2,40,16.1"/>
				<path clip-path="url(#SVGID_26_)" fill="#464342" d="M26.8,5.8c-9.6,0-17.5,7.9-17.5,17.5c0,9.7,7.9,17.5,17.5,17.5
					c9.6,0,17.5-7.9,17.5-17.5C44.3,13.6,36.5,5.8,26.8,5.8 M26.8,40c-9.2,0-16.7-7.5-16.7-16.7c0-9.2,7.5-16.7,16.7-16.7
					c9.2,0,16.7,7.5,16.7,16.7C43.5,32.5,36,40,26.8,40"/>
			</g>
		</g>
	</g>
	<g>
		<path fill="#B2B2B2" d="M193,5.8l-16.5,5.8l2.6,21.6l13.9,7.6l14-7.7l2.6-21.6L193,5.8z"/>
		<path fill="#B52E31" d="M207.9,12.7l-15-5.1V39l12.5-6.9L207.9,12.7z"/>
		<path fill="#E23237" d="M178.4,12.8l2.2,19.3L193,39V7.6L178.4,12.8z"/>
		<path fill="#F2F2F2" d="M196.4,23.2L193,16l-3,7.2H196.4z M197.7,26.2h-9.1l-2,5.1l-3.8,0.1L193,8.8l10.5,22.6H200L197.7,26.2z"/>
		<path fill="#B2B2B2" d="M192.9,8.7V16l3.4,7.2h-3.5v3h4.8l2.2,5.2l3.6,0.1L192.9,8.7z"/>
	</g>
</g>
</svg>
