<?xml version="1.0" encoding="utf-8"?>
<!-- Generator: Adobe Illustrator 16.0.4, SVG Export Plug-In . SVG Version: 6.00 Build 0)  -->
<!DOCTYPE svg PUBLIC "-//W3C//DTD SVG 1.0//EN" "http://www.w3.org/TR/2001/REC-SVG-20010904/DTD/svg10.dtd">
<svg xmlns:xlink="http://www.w3.org/1999/xlink" version="1.0" id="Layer_1" xmlns="http://www.w3.org/2000/svg" x="0px" y="0px"
	 width="453px" height="413px" viewBox="0 0 453 413" enable-background="new 0 0 453 413" xml:space="preserve">
<g>
	<path fill="#E6E6E6" fill-opacity="0.8" d="M453,401c0,6.6-5.4,12-12,12H12c-6.6,0-12-5.4-12-12V12C0,5.4,5.4,0,12,0h429
		c6.6,0,12,5.4,12,12V401z"/>
	<g>
		<g>
			<path fill="#B2B2B2" d="M226.3,167.9l-74.8,26.3l11.8,97.9l63,34.6l63.4-35.1l11.8-97.9L226.3,167.9z M226.3,167.9"/>
			<path fill="#B52E31" d="M294,199.4l-68-23.2v142.3l57-31.5L294,199.4z M294,199.4"/>
			<path fill="#E23237" d="M159.9,199.8l10.1,87.6l56.1,31.1V176.2L159.9,199.8z M159.9,199.8"/>
			<path fill="#F2F2F2" d="M241.8,247l-15.6-32.6L212.5,247H241.8z M247.8,260.7h-41.4l-9.3,23.2l-17.2,0.3l46.2-102.8l47.8,102.8
				h-16L247.8,260.7z M247.8,260.7"/>
			<path fill="#B2B2B2" d="M226.1,181.4l0.1,33l15.6,32.7h-15.7l0,13.7l21.7,0l10.1,23.5l16.5,0.3L226.1,181.4z M226.1,181.4"/>
		</g>
		<g>
			<g>
				<defs>
					<rect id="SVGID_1_" x="89" y="96.9" width="275" height="62.4"/>
				</defs>
				<clipPath id="SVGID_2_">
					<use xlink:href="#SVGID_1_"  overflow="visible"/>
				</clipPath>
				<g clip-path="url(#SVGID_2_)">
					<defs>
						<rect id="SVGID_3_" x="71.9" y="76.2" width="308.7" height="102.9"/>
					</defs>
					<clipPath id="SVGID_4_">
						<use xlink:href="#SVGID_3_"  overflow="visible"/>
					</clipPath>
					<path clip-path="url(#SVGID_4_)" fill="#00749A" d="M248.5,121.5h-10.8v1.1c3.4,0,3.9,0.7,3.9,5v7.7c0,4.3-0.5,5.1-3.9,5.1
						c-2.6-0.4-4.3-1.8-6.8-4.4l-2.8-3c3.8-0.7,5.7-3,5.7-5.7c0-3.3-2.8-5.9-8.2-5.9h-10.6v1.1c3.4,0,3.9,0.7,3.9,5v7.7
						c0,4.3-0.5,5.1-3.9,5.1v1.2h12v-1.2c-3.4,0-3.9-0.8-3.9-5.1v-2.2h1l6.7,8.4h17.6c8.6,0,12.4-4.6,12.4-10.1
						C260.9,126,257.1,121.5,248.5,121.5 M223.2,131.3v-8h2.5c2.7,0,3.9,1.9,3.9,4c0,2.1-1.2,4-3.9,4H223.2z M248.7,139.7h-0.4
						c-2.2,0-2.5-0.5-2.5-3.3v-13.1h2.9c6.3,0,7.4,4.6,7.4,8.2C256.1,135.1,255,139.7,248.7,139.7"/>
					<path clip-path="url(#SVGID_4_)" fill="#00749A" d="M181.4,133.6l4.2-12.3c1.2-3.6,0.7-4.6-3.2-4.6v-1.2h11.4v1.2
						c-3.8,0-4.7,0.9-6.2,5.3l-6.9,20.7h-0.8l-6.2-18.9l-6.3,18.9h-0.8l-6.7-20.7c-1.5-4.4-2.4-5.3-5.9-5.3v-1.2h13.4v1.2
						c-3.6,0-4.5,0.8-3.3,4.6l4,12.3l6.1-18.1h1.1L181.4,133.6z"/>
					<path clip-path="url(#SVGID_4_)" fill="#00749A" d="M201.9,142.4c-6.7,0-12.1-4.9-12.1-10.9c0-5.9,5.4-10.8,12.1-10.8
						c6.7,0,12.1,4.9,12.1,10.8C214,137.5,208.6,142.4,201.9,142.4 M201.9,122.6c-5.6,0-7.5,5-7.5,8.9c0,4,1.9,9,7.5,9
						c5.6,0,7.6-5,7.6-9C209.5,127.6,207.6,122.6,201.9,122.6"/>
					<path clip-path="url(#SVGID_4_)" fill="#464342" d="M275.8,140.4v1.2H262v-1.2c4.1,0,4.8-1,4.8-7.1v-9.7c0-6-0.7-7-4.8-7v-1.2
						h12.5c6.2,0,9.7,3.2,9.7,7.5c0,4.2-3.5,7.4-9.7,7.4h-3.4v3C271.1,139.4,271.8,140.4,275.8,140.4 M274.5,117.6h-3.4v10.5h3.4
						c3.4,0,5-2.4,5-5.2C279.5,120,277.9,117.6,274.5,117.6"/>
					<path clip-path="url(#SVGID_4_)" fill="#464342" d="M325.7,135.9l-0.3,1.1c-0.5,2-1.2,2.7-5.5,2.7h-0.9c-3.1,0-3.7-0.7-3.7-5
						v-2.8c4.7,0,5.1,0.4,5.1,3.6h1.1v-9h-1.1c0,3.1-0.4,3.6-5.1,3.6v-6.8h3.3c4.3,0,5,0.7,5.5,2.7l0.3,1.2h1l-0.4-5.7h-17.8v1.1
						c3.4,0,3.9,0.7,3.9,5v7.7c0,3.9-0.5,4.9-3.1,5.1c-2.5-0.4-4.3-1.8-6.7-4.4l-2.8-3c3.8-0.7,5.7-3,5.7-5.7c0-3.3-2.8-5.9-8.2-5.9
						h-10.6v1.1c3.4,0,3.9,0.7,3.9,5v7.7c0,4.3-0.5,5.1-3.9,5.1v1.2h12v-1.2c-3.4,0-3.9-0.8-3.9-5.1v-2.2h1l6.7,8.4h24.9l0.4-5.7
						H325.7z M293.7,131.3v-8h2.5c2.7,0,3.9,1.9,3.9,4c0,2.1-1.2,4-3.9,4H293.7z"/>
					<path clip-path="url(#SVGID_4_)" fill="#464342" d="M338,142.4c-2.4,0-4.5-1.3-5.4-2.1c-0.3,0.3-0.8,1.2-1,2.1h-1.2v-8.3h1.2
						c0.5,4,3.3,6.4,6.8,6.4c1.9,0,3.5-1.1,3.5-2.9c0-1.6-1.4-2.8-3.9-3.9l-3.4-1.6c-2.4-1.1-4.2-3.1-4.2-5.8c0-2.9,2.7-5.4,6.5-5.4
						c2,0,3.7,0.7,4.7,1.6c0.3-0.2,0.6-0.9,0.8-1.6h1.2v7.1h-1.3c-0.4-2.8-2-5.2-5.2-5.2c-1.7,0-3.3,1-3.3,2.5
						c0,1.6,1.3,2.4,4.2,3.8l3.3,1.6c2.9,1.4,4.1,3.6,4.1,5.4C345.4,139.7,342,142.4,338,142.4"/>
					<path clip-path="url(#SVGID_4_)" fill="#464342" d="M356.6,142.4c-2.4,0-4.5-1.3-5.4-2.1c-0.3,0.3-0.8,1.2-1,2.1h-1.1v-8.3h1.2
						c0.5,4,3.3,6.4,6.8,6.4c1.9,0,3.5-1.1,3.5-2.9c0-1.6-1.4-2.8-3.9-3.9l-3.4-1.6c-2.4-1.1-4.2-3.1-4.2-5.8c0-2.9,2.7-5.4,6.5-5.4
						c2,0,3.7,0.7,4.7,1.6c0.3-0.2,0.6-0.9,0.8-1.6h1.1v7.1h-1.3c-0.4-2.8-2-5.2-5.2-5.2c-1.7,0-3.3,1-3.3,2.5
						c0,1.6,1.3,2.4,4.2,3.8l3.3,1.6c2.9,1.4,4.1,3.6,4.1,5.4C364,139.7,360.7,142.4,356.6,142.4"/>
					<path clip-path="url(#SVGID_4_)" fill="#464342" d="M93.4,128.1c0,10.6,6.2,19.7,15.1,24.1l-12.8-35
						C94.3,120.6,93.4,124.2,93.4,128.1"/>
					<path clip-path="url(#SVGID_4_)" fill="#464342" d="M138.3,126.8c0-3.3-1.2-5.6-2.2-7.4c-1.4-2.2-2.6-4.1-2.6-6.3
						c0-2.5,1.9-4.7,4.5-4.7c0.1,0,0.2,0,0.4,0c-4.8-4.4-11.1-7-18.1-7c-9.3,0-17.6,4.8-22.4,12.1c0.6,0,1.2,0,1.7,0
						c2.8,0,7.1-0.3,7.1-0.3c1.4-0.1,1.6,2,0.2,2.2c0,0-1.5,0.2-3.1,0.3l9.7,29l5.9-17.6l-4.2-11.4c-1.4-0.1-2.8-0.3-2.8-0.3
						c-1.4-0.1-1.3-2.3,0.2-2.2c0,0,4.4,0.3,7,0.3c2.8,0,7.1-0.3,7.1-0.3c1.4-0.1,1.6,2,0.2,2.2c0,0-1.5,0.2-3.1,0.3l9.7,28.8
						l2.7-8.9C137.4,131.7,138.3,129.1,138.3,126.8"/>
					<path clip-path="url(#SVGID_4_)" fill="#464342" d="M120.7,130.5l-8,23.3c2.4,0.7,4.9,1.1,7.6,1.1c3.1,0,6.1-0.5,8.9-1.5
						c-0.1-0.1-0.1-0.2-0.2-0.4L120.7,130.5z"/>
					<path clip-path="url(#SVGID_4_)" fill="#464342" d="M143.7,115.3c0.1,0.9,0.2,1.8,0.2,2.8c0,2.7-0.5,5.8-2,9.6l-8.2,23.6
						c8-4.6,13.3-13.3,13.3-23.1C147,123.5,145.8,119.1,143.7,115.3"/>
					<path clip-path="url(#SVGID_4_)" fill="#464342" d="M120.2,96.9c-17.2,0-31.2,14-31.2,31.2c0,17.2,14,31.2,31.2,31.2
						s31.2-14,31.2-31.2C151.4,110.9,137.4,96.9,120.2,96.9 M120.2,157.9c-16.4,0-29.8-13.4-29.8-29.8c0-16.4,13.4-29.8,29.8-29.8
						c16.4,0,29.8,13.4,29.8,29.8C150,144.5,136.6,157.9,120.2,157.9"/>
				</g>
			</g>
		</g>
	</g>
	<g>
		<path fill="#464342" d="M181.6,384.3c0,1.5-0.5,2.7-1.6,3.5s-2.6,1.3-4.5,1.3c-2,0-3.6-0.3-4.7-0.8v-1.9c0.7,0.3,1.5,0.5,2.3,0.7
			s1.6,0.3,2.5,0.3c1.3,0,2.3-0.3,3-0.8s1-1.2,1-2.1c0-0.6-0.1-1.1-0.4-1.5s-0.6-0.7-1.2-1s-1.4-0.7-2.5-1.1c-1.6-0.6-2.7-1.2-3.4-2
			s-1-1.8-1-3.1c0-1.3,0.5-2.4,1.5-3.2s2.3-1.2,3.9-1.2c1.7,0,3.3,0.3,4.7,0.9l-0.6,1.7c-1.4-0.6-2.8-0.9-4.1-0.9
			c-1.1,0-1.9,0.2-2.5,0.7s-0.9,1.1-0.9,1.9c0,0.6,0.1,1.1,0.3,1.5s0.6,0.7,1.1,1s1.3,0.7,2.4,1c1.8,0.6,3,1.3,3.7,2.1
			S181.6,383.2,181.6,384.3z"/>
		<path fill="#464342" d="M188.9,387.5c0.3,0,0.7,0,1-0.1s0.6-0.1,0.8-0.2v1.5c-0.2,0.1-0.5,0.2-0.9,0.3s-0.8,0.1-1.1,0.1
			c-2.5,0-3.7-1.3-3.7-3.9v-7.6h-1.8v-0.9l1.8-0.8l0.8-2.7h1.1v3h3.7v1.5h-3.7v7.6c0,0.8,0.2,1.4,0.6,1.8S188.3,387.5,188.9,387.5z"
			/>
		<path fill="#464342" d="M201.1,388.9l-0.4-1.8h-0.1c-0.6,0.8-1.3,1.3-1.9,1.6s-1.4,0.4-2.4,0.4c-1.3,0-2.3-0.3-3-1
			s-1.1-1.6-1.1-2.8c0-2.6,2.1-4,6.2-4.1l2.2-0.1v-0.8c0-1-0.2-1.8-0.7-2.2s-1.1-0.7-2.1-0.7c-1.1,0-2.3,0.3-3.6,1l-0.6-1.5
			c0.6-0.3,1.3-0.6,2.1-0.8s1.5-0.3,2.3-0.3c1.5,0,2.7,0.3,3.4,1s1.1,1.8,1.1,3.3v8.8H201.1z M196.7,387.5c1.2,0,2.2-0.3,2.9-1
			s1-1.6,1-2.8v-1.2l-1.9,0.1c-1.5,0.1-2.7,0.3-3.3,0.7s-1,1.1-1,2c0,0.7,0.2,1.2,0.6,1.6S196,387.5,196.7,387.5z"/>
		<path fill="#464342" d="M212.4,375.8c0.6,0,1.1,0,1.5,0.1l-0.3,1.8c-0.5-0.1-1-0.2-1.4-0.2c-1,0-1.9,0.4-2.7,1.3s-1.1,1.9-1.1,3.2
			v6.9h-1.9v-12.8h1.6l0.2,2.4h0.1c0.5-0.8,1.1-1.5,1.7-1.9S211.6,375.8,212.4,375.8z"/>
		<path fill="#464342" d="M220.5,387.5c0.3,0,0.7,0,1-0.1s0.6-0.1,0.8-0.2v1.5c-0.2,0.1-0.5,0.2-0.9,0.3s-0.8,0.1-1.1,0.1
			c-2.5,0-3.7-1.3-3.7-3.9v-7.6h-1.8v-0.9l1.8-0.8l0.8-2.7h1.1v3h3.7v1.5h-3.7v7.6c0,0.8,0.2,1.4,0.6,1.8S219.9,387.5,220.5,387.5z"
			/>
		<path fill="#464342" d="M244.4,388.9h-2v-8.1h-9v8.1h-2v-17.1h2v7.3h9v-7.3h2V388.9z"/>
		<path fill="#464342" d="M254.2,389.1c-1.9,0-3.4-0.6-4.5-1.7s-1.6-2.8-1.6-4.8c0-2.1,0.5-3.7,1.5-4.9s2.4-1.8,4.1-1.8
			c1.6,0,2.9,0.5,3.8,1.6s1.4,2.5,1.4,4.2v1.2h-8.8c0,1.5,0.4,2.7,1.1,3.4s1.7,1.2,3.1,1.2c1.4,0,2.8-0.3,4.1-0.9v1.7
			c-0.7,0.3-1.3,0.5-2,0.6S255.1,389.1,254.2,389.1z M253.7,377.4c-1,0-1.9,0.3-2.5,1s-1,1.6-1.1,2.8h6.7c0-1.2-0.3-2.2-0.8-2.8
			S254.7,377.4,253.7,377.4z"/>
		<path fill="#464342" d="M268.1,375.8c0.6,0,1.1,0,1.5,0.1l-0.3,1.8c-0.5-0.1-1-0.2-1.4-0.2c-1,0-1.9,0.4-2.7,1.3s-1.1,1.9-1.1,3.2
			v6.9h-1.9v-12.8h1.6l0.2,2.4h0.1c0.5-0.8,1.1-1.5,1.7-1.9S267.3,375.8,268.1,375.8z"/>
		<path fill="#464342" d="M277.5,389.1c-1.9,0-3.4-0.6-4.5-1.7s-1.6-2.8-1.6-4.8c0-2.1,0.5-3.7,1.5-4.9s2.4-1.8,4.1-1.8
			c1.6,0,2.9,0.5,3.8,1.6s1.4,2.5,1.4,4.2v1.2h-8.8c0,1.5,0.4,2.7,1.1,3.4s1.7,1.2,3.1,1.2c1.4,0,2.8-0.3,4.1-0.9v1.7
			c-0.7,0.3-1.3,0.5-2,0.6S278.4,389.1,277.5,389.1z M277,377.4c-1,0-1.9,0.3-2.5,1s-1,1.6-1.1,2.8h6.7c0-1.2-0.3-2.2-0.8-2.8
			S278,377.4,277,377.4z"/>
	</g>
	<g>
		<path fill="#464342" d="M80.2,43H66.3l-4.8,12.1h-2.6l13.8-34.4h1.5l13.5,34.4H85L80.2,43z M67.1,40.9h12.3l-4.7-12.4
			c-0.4-1-0.9-2.3-1.4-4c-0.4,1.5-0.9,2.9-1.4,4.1L67.1,40.9z"/>
		<path fill="#464342" d="M109.7,55.1V38.6c0-2.6-0.5-4.4-1.6-5.6s-2.8-1.7-5-1.7c-3,0-5.3,0.8-6.7,2.3s-2.1,4-2.1,7.5v14.1h-2.3
			V29.6h2l0.4,3.5h0.1c1.7-2.7,4.6-4,8.8-4c5.8,0,8.7,3.1,8.7,9.3v16.7H109.7z"/>
		<path fill="#464342" d="M140.1,29.6v1.6l-5.3,0.3c1.4,1.8,2.1,3.7,2.1,5.8c0,2.5-0.8,4.4-2.4,6s-3.8,2.3-6.6,2.3
			c-1.2,0-2,0-2.4-0.1c-0.9,0.5-1.6,1.1-2.1,1.7s-0.7,1.4-0.7,2.1c0,0.8,0.3,1.4,0.9,1.8s1.7,0.6,3.1,0.6h4.5c2.8,0,4.9,0.6,6.4,1.7
			s2.2,2.8,2.2,5c0,2.7-1.1,4.8-3.3,6.2s-5.3,2.2-9.3,2.2c-3.2,0-5.7-0.6-7.4-1.9s-2.6-3-2.6-5.2c0-1.8,0.5-3.2,1.6-4.4
			s2.6-1.9,4.4-2.4c-0.8-0.3-1.4-0.8-1.8-1.4s-0.7-1.3-0.7-2.1c0-1.7,1.1-3.2,3.3-4.5c-1.5-0.6-2.6-1.6-3.5-2.9s-1.2-2.8-1.2-4.5
			c0-2.5,0.8-4.6,2.4-6.1s3.8-2.3,6.6-2.3c1.7,0,3,0.2,3.9,0.5H140.1z M119.5,59.4c0,3.5,2.6,5.2,7.8,5.2c6.7,0,10-2.1,10-6.4
			c0-1.5-0.5-2.6-1.6-3.3s-2.7-1-5.1-1h-4.2C121.8,53.9,119.5,55.7,119.5,59.4z M121.4,37.6c0,2,0.6,3.5,1.8,4.6s2.8,1.6,4.8,1.6
			c2.1,0,3.8-0.5,4.9-1.6s1.7-2.6,1.7-4.7c0-2.2-0.6-3.8-1.7-4.9S130.1,31,128,31c-2,0-3.6,0.6-4.8,1.7S121.4,35.5,121.4,37.6z"/>
		<path fill="#464342" d="M147.7,55.1h-2.3V18.6h2.3V55.1z"/>
		<path fill="#464342" d="M155.9,22.6c0-1.5,0.5-2.2,1.5-2.2c0.5,0,0.9,0.2,1.1,0.6s0.4,0.9,0.4,1.7c0,0.7-0.1,1.3-0.4,1.7
			s-0.7,0.6-1.1,0.6C156.4,24.8,155.9,24.1,155.9,22.6z M158.5,55.1h-2.3V29.6h2.3V55.1z"/>
		<path fill="#464342" d="M184.8,55.1V38.6c0-2.6-0.5-4.4-1.6-5.6s-2.8-1.7-5-1.7c-3,0-5.3,0.8-6.7,2.3s-2.1,4-2.1,7.5v14.1H167
			V29.6h2l0.4,3.5h0.1c1.7-2.7,4.6-4,8.8-4c5.8,0,8.7,3.1,8.7,9.3v16.7H184.8z"/>
		<path fill="#464342" d="M215.2,29.6v1.6l-5.3,0.3c1.4,1.8,2.1,3.7,2.1,5.8c0,2.5-0.8,4.4-2.4,6s-3.8,2.3-6.6,2.3
			c-1.2,0-2,0-2.4-0.1c-0.9,0.5-1.6,1.1-2.1,1.7s-0.7,1.4-0.7,2.1c0,0.8,0.3,1.4,0.9,1.8s1.7,0.6,3.1,0.6h4.5c2.8,0,4.9,0.6,6.4,1.7
			s2.2,2.8,2.2,5c0,2.7-1.1,4.8-3.3,6.2s-5.3,2.2-9.3,2.2c-3.2,0-5.7-0.6-7.4-1.9s-2.6-3-2.6-5.2c0-1.8,0.5-3.2,1.6-4.4
			s2.6-1.9,4.4-2.4c-0.8-0.3-1.4-0.8-1.8-1.4s-0.7-1.3-0.7-2.1c0-1.7,1.1-3.2,3.3-4.5c-1.5-0.6-2.6-1.6-3.5-2.9s-1.2-2.8-1.2-4.5
			c0-2.5,0.8-4.6,2.4-6.1s3.8-2.3,6.6-2.3c1.7,0,3,0.2,3.9,0.5H215.2z M194.6,59.4c0,3.5,2.6,5.2,7.8,5.2c6.7,0,10-2.1,10-6.4
			c0-1.5-0.5-2.6-1.6-3.3s-2.7-1-5.1-1h-4.2C196.9,53.9,194.6,55.7,194.6,59.4z M196.5,37.6c0,2,0.6,3.5,1.8,4.6s2.8,1.6,4.8,1.6
			c2.1,0,3.8-0.5,4.9-1.6s1.7-2.6,1.7-4.7c0-2.2-0.6-3.8-1.7-4.9s-2.8-1.6-4.9-1.6c-2,0-3.6,0.6-4.8,1.7S196.5,35.5,196.5,37.6z"/>
		<path fill="#464342" d="M250,43h-13.9l-4.8,12.1h-2.6l13.8-34.4h1.5l13.5,34.4h-2.7L250,43z M237,40.9h12.3l-4.7-12.4
			c-0.4-1-0.9-2.3-1.4-4c-0.4,1.5-0.9,2.9-1.4,4.1L237,40.9z"/>
		<path fill="#464342" d="M279.5,55.1V38.6c0-2.6-0.5-4.4-1.6-5.6s-2.8-1.7-5-1.7c-3,0-5.3,0.8-6.7,2.3s-2.1,4-2.1,7.5v14.1h-2.3
			V29.6h2l0.4,3.5h0.1c1.7-2.7,4.6-4,8.8-4c5.8,0,8.7,3.1,8.7,9.3v16.7H279.5z"/>
		<path fill="#464342" d="M309.9,29.6v1.6l-5.3,0.3c1.4,1.8,2.1,3.7,2.1,5.8c0,2.5-0.8,4.4-2.4,6s-3.8,2.3-6.6,2.3
			c-1.2,0-2,0-2.4-0.1c-0.9,0.5-1.6,1.1-2.1,1.7s-0.7,1.4-0.7,2.1c0,0.8,0.3,1.4,0.9,1.8s1.7,0.6,3.1,0.6h4.5c2.8,0,4.9,0.6,6.4,1.7
			s2.2,2.8,2.2,5c0,2.7-1.1,4.8-3.3,6.2s-5.3,2.2-9.3,2.2c-3.2,0-5.7-0.6-7.4-1.9s-2.6-3-2.6-5.2c0-1.8,0.5-3.2,1.6-4.4
			s2.6-1.9,4.4-2.4c-0.8-0.3-1.4-0.8-1.8-1.4s-0.7-1.3-0.7-2.1c0-1.7,1.1-3.2,3.3-4.5c-1.5-0.6-2.6-1.6-3.5-2.9s-1.2-2.8-1.2-4.5
			c0-2.5,0.8-4.6,2.4-6.1s3.8-2.3,6.6-2.3c1.7,0,3,0.2,3.9,0.5H309.9z M289.3,59.4c0,3.5,2.6,5.2,7.8,5.2c6.7,0,10-2.1,10-6.4
			c0-1.5-0.5-2.6-1.6-3.3s-2.7-1-5.1-1h-4.2C291.6,53.9,289.3,55.7,289.3,59.4z M291.2,37.6c0,2,0.6,3.5,1.8,4.6s2.8,1.6,4.8,1.6
			c2.1,0,3.8-0.5,4.9-1.6s1.7-2.6,1.7-4.7c0-2.2-0.6-3.8-1.7-4.9s-2.8-1.6-4.9-1.6c-2,0-3.6,0.6-4.8,1.7S291.2,35.5,291.2,37.6z"/>
		<path fill="#464342" d="M317.2,29.6v16.5c0,2.6,0.5,4.4,1.6,5.6s2.8,1.7,5,1.7c3,0,5.3-0.8,6.7-2.3s2.1-4,2.1-7.5V29.6h2.3v25.5
			h-2l-0.4-3.5h-0.1c-1.7,2.7-4.6,4-8.8,4c-5.8,0-8.7-3.1-8.7-9.3V29.6H317.2z"/>
		<path fill="#464342" d="M345.8,55.1h-2.3V18.6h2.3V55.1z"/>
		<path fill="#464342" d="M369.8,55.1l-0.6-4H369c-1.3,1.6-2.6,2.8-3.9,3.5s-2.9,1-4.8,1c-2.5,0-4.4-0.6-5.8-1.9s-2.1-3.1-2.1-5.3
			c0-2.5,1-4.4,3.1-5.8s5.1-2.1,9-2.2l4.9-0.1v-1.7c0-2.4-0.5-4.2-1.5-5.5s-2.6-1.9-4.8-1.9c-2.4,0-4.8,0.7-7.3,2l-0.9-2
			c2.8-1.3,5.6-2,8.3-2c2.8,0,4.9,0.7,6.3,2.2s2.1,3.7,2.1,6.8v16.9H369.8z M360.4,53.5c2.7,0,4.9-0.8,6.4-2.3s2.4-3.7,2.4-6.5v-2.5
			l-4.5,0.2c-3.6,0.2-6.1,0.7-7.7,1.7s-2.3,2.4-2.3,4.4c0,1.6,0.5,2.8,1.5,3.7S358.6,53.5,360.4,53.5z"/>
		<path fill="#464342" d="M389.8,29.1c1.1,0,2.2,0.1,3.5,0.3l-0.4,2.2c-1.1-0.3-2.2-0.4-3.3-0.4c-2.2,0-4,0.9-5.3,2.8
			s-2.1,4.2-2.1,7v14.1h-2.3V29.6h2l0.2,4.6h0.2c1-1.9,2.2-3.2,3.4-3.9S388.1,29.1,389.8,29.1z"/>
	</g>
</g>
</svg>
