<?xml version="1.0" encoding="utf-8"?>
<!-- Generator: Adobe Illustrator 17.1.0, SVG Export Plug-In . SVG Version: 6.00 Build 0)  -->
<!DOCTYPE svg PUBLIC "-//W3C//DTD SVG 1.1//EN" "http://www.w3.org/Graphics/SVG/1.1/DTD/svg11.dtd">
<svg version="1.1" xmlns="http://www.w3.org/2000/svg" xmlns:xlink="http://www.w3.org/1999/xlink" x="0px" y="0px"
	 viewBox="0 0 505 117" enable-background="new 0 0 505 117" xml:space="preserve">
<g id="Layer_1">
</g>
<g id="Layer_2">
	<g>
		<path fill="#FFFFFF" d="M384.5,78.6c-3.4,0-6.3-1.8-7.6-2.9c-0.4,0.4-1.2,1.7-1.4,2.9h-1.6V66.9h1.7c0.7,5.6,4.6,8.9,9.6,8.9
			c2.7,0,4.9-1.5,4.9-4.1c0-2.2-1.9-3.9-5.4-5.5l-4.8-2.3c-3.4-1.6-5.9-4.4-5.9-8.1c0-4.1,3.8-7.5,9.1-7.5c2.8,0,5.2,1,6.6,2.2
			c0.4-0.3,0.8-1.3,1.1-2.3h1.6v10h-1.8c-0.6-4-2.8-7.3-7.3-7.3c-2.4,0-4.6,1.4-4.6,3.5c0,2.2,1.8,3.4,5.8,5.2l4.7,2.3
			c4.1,1.9,5.7,5.1,5.7,7.6C394.8,74.9,390.2,78.6,384.5,78.6z"/>
		<g>
			<path fill="#FFFFFF" d="M233.2,49.3H218v1.6c4.7,0,5.5,1,5.5,7v10.8c0,6-0.8,7.1-5.5,7.1c-3.6-0.5-6.1-2.5-9.5-6.2l-3.9-4.2
				c5.2-0.9,8-4.2,8-8c0-4.7-4-8.2-11.4-8.2h-14.9v1.6c4.7,0,5.5,1,5.5,7v10.8c0,6-0.8,7.1-5.5,7.1v1.6h16.8v-1.6
				c-4.7,0-5.5-1.1-5.5-7.1v-3h1.4l9.4,11.8h24.6c12.1,0,17.4-6.4,17.4-14.1C250.5,55.7,245.3,49.3,233.2,49.3z M197.7,63.1V51.9
				h3.5c3.8,0,5.5,2.6,5.5,5.7c0,3-1.7,5.6-5.5,5.6H197.7z M233.4,74.9h-0.6c-3,0-3.5-0.8-3.5-4.7V51.9c0,0,3.7,0,4.1,0
				c8.8,0,10.4,6.4,10.4,11.4C243.8,68.4,242.2,74.9,233.4,74.9z"/>
			<path fill="#FFFFFF" d="M139.2,66.2l5.8-17.3c1.7-5,0.9-6.4-4.5-6.4v-1.7h15.9v1.7c-5.3,0-6.6,1.3-8.7,7.4l-9.6,28.9H137
				l-8.6-26.5l-8.8,26.5h-1.1L109.1,50c-2-6.2-3.4-7.4-8.3-7.4v-1.7h18.8v1.7c-5,0-6.3,1.2-4.6,6.4l5.7,17.3l8.5-25.4h1.6
				L139.2,66.2z"/>
			<path fill="#FFFFFF" d="M168,78.6c-9.3,0-16.9-6.9-16.9-15.2c0-8.3,7.6-15.2,16.9-15.2c9.3,0,16.9,6.9,16.9,15.2
				C184.9,71.7,177.3,78.6,168,78.6z M168,50.8c-7.8,0-10.5,7-10.5,12.5c0,5.6,2.7,12.5,10.5,12.5c7.9,0,10.6-6.9,10.6-12.5
				C178.6,57.9,175.9,50.8,168,50.8z"/>
			<path fill="#FFFFFF" d="M271.4,75.8v1.7H252v-1.7c5.7,0,6.7-1.4,6.7-9.9V52.4c0-8.5-1-9.8-6.7-9.8v-1.7h17.5
				c8.7,0,13.5,4.5,13.5,10.5c0,5.8-4.8,10.4-13.5,10.4h-4.8v4.1C264.7,74.4,265.8,75.8,271.4,75.8z M269.6,43.9h-4.8v14.7h4.8
				c4.7,0,6.9-3.3,6.9-7.3C276.5,47.3,274.3,43.9,269.6,43.9z"/>
			<path fill="#FFFFFF" d="M341.2,69.5l-0.4,1.5c-0.8,2.8-1.7,3.8-7.7,3.8h-1.2c-4.4,0-5.2-1-5.2-7V64c6.6,0,7.1,0.6,7.1,5h1.6V56.3
				h-1.6c0,4.4-0.5,5-7.1,5v-9.5h4.7c6,0,6.9,1,7.7,3.8l0.4,1.6h1.4l-0.6-8h-24.9v1.6c4.7,0,5.5,1,5.5,7v10.8c0,5.5-0.6,6.9-4.4,7.1
				c-3.6-0.5-6-2.5-9.3-6.1l-3.9-4.2c5.2-0.9,8-4.2,8-8c0-4.7-4-8.2-11.4-8.2H285v1.6c4.7,0,5.5,1,5.5,7v10.8c0,6-0.8,7.1-5.5,7.1
				v1.6h16.8v-1.6c-4.7,0-5.5-1.1-5.5-7.1v-3h1.4l9.4,11.8H342l0.5-8H341.2z M296.4,63.1V51.9h3.5c3.8,0,5.5,2.6,5.5,5.7
				c0,3-1.7,5.6-5.5,5.6H296.4z"/>
			<path fill="#FFFFFF" d="M358.4,78.6c-3.4,0-6.3-1.8-7.6-2.9c-0.4,0.4-1.2,1.7-1.4,2.9h-1.6V66.9h1.7c0.7,5.6,4.6,8.9,9.6,8.9
				c2.7,0,4.9-1.5,4.9-4.1c0-2.2-1.9-3.9-5.4-5.5l-4.8-2.3c-3.4-1.6-5.9-4.4-5.9-8.1c0-4.1,3.8-7.5,9.1-7.5c2.8,0,5.2,1,6.6,2.2
				c0.4-0.3,0.8-1.3,1.1-2.3h1.6v10h-1.8c-0.6-4-2.8-7.3-7.3-7.3c-2.4,0-4.6,1.4-4.6,3.5c0,2.2,1.8,3.4,5.8,5.2l4.7,2.3
				c4.1,1.9,5.7,5.1,5.7,7.6C368.8,74.9,364.1,78.6,358.4,78.6z"/>
			<g>
				<path fill="#E04A25" d="M16.2,58.6c0,14.8,8.6,27.6,21.1,33.7l-17.9-49C17.3,48,16.2,53.2,16.2,58.6z"/>
				<path fill="#E04A25" d="M78.9,56.7c0-4.6-1.7-7.8-3.1-10.3c-1.9-3.1-3.7-5.7-3.7-8.8c0-3.4,2.6-6.6,6.3-6.6c0.2,0,0.3,0,0.5,0
					c-6.7-6.1-15.5-9.8-25.3-9.8C40.5,21.2,29,27.9,22.3,38c0.9,0,1.7,0,2.4,0c3.9,0,10-0.5,10-0.5c2-0.1,2.3,2.8,0.2,3.1
					c0,0-2,0.2-4.3,0.4l13.6,40.6L52.5,57l-5.8-16c-2-0.1-3.9-0.4-3.9-0.4c-2-0.1-1.8-3.2,0.2-3.1c0,0,6.2,0.5,9.9,0.5
					c3.9,0,10-0.5,10-0.5c2-0.1,2.3,2.8,0.2,3.1c0,0-2,0.2-4.3,0.4l13.5,40.3L76,68.8C77.7,63.6,78.9,59.9,78.9,56.7z"/>
				<path fill="#E04A25" d="M54.3,61.9L43,94.5c3.4,1,6.9,1.5,10.6,1.5c4.4,0,8.5-0.8,12.4-2.1c-0.1-0.2-0.2-0.3-0.3-0.5L54.3,61.9z
					"/>
				<path fill="#E04A25" d="M86.5,40.6c0.2,1.2,0.3,2.5,0.3,3.9c0,3.8-0.7,8.1-2.8,13.4L72.4,91c11.1-6.5,18.6-18.6,18.6-32.4
					C91.1,52.1,89.4,46,86.5,40.6z"/>
				<path fill="#E04A25" d="M53.6,14.9c-24.1,0-43.7,19.6-43.7,43.7c0,24.1,19.6,43.7,43.7,43.7c24.1,0,43.7-19.6,43.7-43.7
					C97.3,34.5,77.7,14.9,53.6,14.9z M53.6,100.3c-23,0-41.7-18.7-41.7-41.7c0-23,18.7-41.7,41.7-41.7c23,0,41.7,18.7,41.7,41.7
					C95.3,81.6,76.6,100.3,53.6,100.3z"/>
			</g>
		</g>
		<g>
			<path fill="#B3B3B3" d="M446.9,13.6l-42.3,14.9l6.7,55.5l35.7,19.6l35.9-19.9l6.7-55.5L446.9,13.6z M446.9,13.6"/>
			<path fill="#B63032" d="M485.3,31.5l-38.5-13.1v80.6l32.3-17.9L485.3,31.5z M485.3,31.5"/>
			<path fill="#E23337" d="M409.3,31.7l5.7,49.6l31.8,17.6V18.3L409.3,31.7z M409.3,31.7"/>
			<path fill="#F3F3F3" d="M455.7,58.4l-8.9-18.5l-7.8,18.5H455.7z M459.1,66.2h-23.5l-5.2,13.1l-9.8,0.2l26.2-58.2l27.1,58.2h-9.1
				L459.1,66.2z M459.1,66.2"/>
			<path fill="#B3B3B3" d="M446.8,21.3l0.1,18.7l8.8,18.5h-8.9l0,7.7l12.3,0l5.7,13.3l9.3,0.2L446.8,21.3z M446.8,21.3"/>
		</g>
	</g>
</g>
</svg>
